<?xml version="1.0" standalone="no"?>
<!DOCTYPE svg PUBLIC "-//W3C//DTD SVG 1.1//EN" "http://www.w3.org/Graphics/SVG/1.1/DTD/svg11.dtd" >
<!--
2013-9-30: Created.
-->
<svg>
<metadata>
Created by iconfont
</metadata>
<defs>

<font id="iconfont" horiz-adv-x="1024" >
  <font-face
    font-family="iconfont"
    font-weight="500"
    font-stretch="normal"
    units-per-em="1024"
    ascent="896"
    descent="-128"
  />
    <missing-glyph />
    
    <glyph glyph-name="qita" unicode="&#58941;" d="M512 384m-512 0a512 512 0 1 1 1024 0 512 512 0 1 1-1024 0ZM219.428571 676.571429h219.428572v-219.428572H219.428571V676.571429z m365.714286 0h219.428572v-219.428572H585.142857V676.571429zM219.428571 310.857143h219.428572v-219.428572H219.428571V310.857143z m365.714286 0h219.428572v-219.428572H585.142857V310.857143z"  horiz-adv-x="1024" />

    
    <glyph glyph-name="jianzhi" unicode="&#59590;" d="M510.140369 891.414909C228.634175 891.414909 0.433414 663.214148 0.433414 381.706955s228.199761-509.706955 509.706955-509.706955c281.500195 0 509.706955 228.200761 509.706954 509.706955S791.641563 891.414909 510.140369 891.414909z m173.380628-703.299576l-18.018428-18.023427c-9.954027-9.949028-26.090828-9.949028-36.041855 0L464.17948 335.37414c-5.711868 5.711868-5.010007 17.193592-5.010007 28.492351V687.529328c0 14.078209 11.411738 25.484948 25.484948 25.484947h25.484948c14.07421 0 25.484948-11.405739 25.484948-25.484947v-315.47246l147.89668-147.90168c9.955026-9.953027 9.955026-26.086828 0.001-36.041855z"  horiz-adv-x="1024" />

    
    <glyph glyph-name="jiadian" unicode="&#58937;" d="M297.71368 383.387622 719.072237 383.387622c22.119094 71.561632 87.909218 123.902567 166.723466 124.08319 0.0289 1.118658 0.332346 2.145801 0.332346 3.263256 0 107.341846-87.003695 194.315436-194.285333 194.315436-13.779127 0-27.169313-1.511213-40.132024-4.230191-35.417764 37.473253-85.281755 61.164971-140.91605 61.164971-55.635499 0-105.498287-23.692922-140.946154-61.164971-12.933812 2.718978-26.321589 4.230191-40.10192 4.230191-107.311742 0-194.285333-86.973591-194.285333-194.315436 0-1.269178 0.36245-2.478148 0.392554-3.777429C212.462028 504.690422 276.044939 453.346526 297.71368 383.387622zM904.562434 421.222122c-33.936655 0-63.823742-16.983379-81.926984-42.822103l-0.089107 0.694797-52.946624-83.588716L249.813662 295.5061l-40.132024 63.37098c-14.957993 36.536422-50.739411 62.343838-92.654787 62.343838-55.303153 0-100.149437-44.846285-100.149437-100.149437 0-45.240043 30.220638-83.044438 71.409908-95.49418l61.860972-184.826708c9.610348-28.769633 34.873486-52.584174 61.800764-61.832072-1.481109-4.651645-2.932114-9.367109-2.932114-14.565439l0-68.297172c0-27.016385 21.939675-48.958468 48.986164-48.958468s48.987368 21.943287 48.987368 48.958468l0 68.297172c0 3.625706-1.299282 6.768546-2.024182 10.093214l411.657898 0c-0.7249-3.324668-2.024182-6.467508-2.024182-10.093214l0-68.297172c0-27.016385 21.939675-48.958468 48.987368-48.958468 27.046489 0 48.986164 21.943287 48.986164 48.958468l0 68.297172c0 4.714261-1.451005 9.066071-2.688875 13.357674 29.010463 7.434443 56.994988 32.153304 66.848575 63.039838l59.290105 185.670819c39.800882 13.296262 68.69093 50.407065 68.69093 94.650069C1004.713075 376.375837 959.866791 421.222122 904.562434 421.222122z"  horiz-adv-x="1024" />

    
    <glyph glyph-name="licai" unicode="&#58912;" d="M534.140928 365.0304l0-123.492352c18.244608 1.934336 26.22464 8.78592 38.12864 20.50048 11.902976 11.742208 17.855488 26.225664 17.855488 43.501568 0 14.724096-4.205568 26.548224-12.643328 35.493888C569.058304 349.956096 559.330304 357.9648 534.140928 365.0304zM456.300544 502.95296c-10.519552-10.237952-15.772672-22.329344-15.772672-36.3008 0-13.810688 4.473856-25.377792 13.420544-34.689024 8.947712-9.32352 21.4016-16.766976 42.776576-22.315008l-0.080896 112.221184C478.399488 519.477248 466.806784 513.16224 456.300544 502.95296zM511.489024 657.26464c-154.1632 0-279.160832-124.971008-279.160832-279.149568 0-154.176512 124.997632-279.174144 279.160832-279.174144 154.177536 0 279.161856 124.997632 279.161856 279.174144C790.651904 532.293632 665.667584 657.26464 511.489024 657.26464zM607.333376 237.924352c-20.68992-18.76992-40.343552-28.831744-73.193472-30.18752l0-52.85376-37.414912 0L496.724992 207.27808c-23.456768 2.566144-39.821312 7.107584-54.505472 13.64992-14.68416 6.528-27.367424 17.089536-38.04672 31.65184-10.681344 14.577664-16.90112 32.36352-18.634752 53.403648l47.169536 7.66976c3.653632-21.789696 10.07616-37.804032 19.29216-47.987712 13.193216-14.442496 26.304512-22.475776 44.725248-24.128512L496.724992 370.67264c-19.279872 3.14368-36.3008 9.606144-56.45312 19.373056-14.953472 7.200768-26.454016 17.210368-34.540544 29.960192-8.075264 12.78976-12.11904 27.286528-12.11904 43.515904 0 28.83072 11.823104 52.19328 35.454976 70.076416 15.799296 12.010496 36.475904 19.386368 67.576832 22.073344l0.080896 37.496832 37.414912 0 0-37.496832c27.286528-2.243584 41.823232-9.162752 57.80992-20.729856 20.501504-14.710784 32.83456-34.917376 37.013504-60.617728l-48.4864-6.299648c-2.781184 15.906816-8.556544 28.131328-17.3312 36.62336-8.772608 8.476672-13.717504 14.078976-29.005824 16.779264l0-116.948992c23.631872-5.118976 32.176128-9.096192 39.821312-11.958272 14.603264-5.549056 26.493952-12.31872 35.709952-20.28544 9.216-7.954432 16.295936-17.412096 21.239808-28.3904 4.957184-10.976256 7.430144-22.823936 7.430144-35.588096C638.34112 280.148992 627.996672 256.718848 607.333376 237.924352zM512 896C229.230592 896 0 666.770432 0 384s229.229568-512 512-512 512 229.229568 512 512S794.770432 896 512 896zM512 67.584c-174.7456 0-316.416 141.681664-316.416 316.416 0 174.759936 141.6704 316.416 316.416 316.416 174.759936 0 316.416-141.656064 316.416-316.416C828.416 209.266688 686.76096 67.584 512 67.584z"  horiz-adv-x="1024" />

    
    <glyph glyph-name="imuying" unicode="&#58889;" d="M365.44 74.88c0-45.248-36.672-81.92-81.92-81.92s-81.92 36.672-81.92 81.92c0 45.248 36.672 81.92 81.92 81.92s81.92-36.672 81.92-81.92zM775.04 74.88c0-45.248-36.672-81.92-81.92-81.92s-81.92 36.672-81.92 81.92c0 45.248 36.672 81.92 81.92 81.92s81.92-36.672 81.92-81.92zM124.8 766.08l0-58.016 87.04 27.296c0 0-12.8-261.12 0-320s46.08-296.96 304.64-296.96c330.24 0 308.064 323.424 308.064 323.424l78.496 0c0 0 23.04 144.224-90.464 247.456-94.336 85.824-232.768 82.56-232.768 82.56l-3.84-329.6-334.08-0.416 0.64 331.104-117.728-6.816z"  horiz-adv-x="1024" />

    
    <glyph glyph-name="shuma" unicode="&#58942;" d="M1052.297272 659.868297L908.763876 659.868297l-53.222954 108.733772c-5.298213 9.873942-14.570085 15.533396-24.323612 16.015052-0.963311 0.120414-2.047037 0.120414-3.010348 0.120414L534.035748 784.737535c-5.900282 0-11.439323-1.806209-16.015052-5.057385-4.575729-2.76952-8.549389-6.863594-11.439323-12.161806l-53.70461-107.770461-46.479774 0 0 31.066792c0 17.460019-18.42333 31.668862-50.935089 31.668862-27.815616 0-48.526811-14.208843-48.526811-31.668862l0-31.066792-3.973659 0c-64.903104 0-117.644403-52.620884-117.644403-117.644403l0-442.64158c0-65.023518 52.620884-117.644403 117.644403-117.644403l749.215428 0c64.903104 0 117.644403 50.694262 117.644403 115.71778L1169.821261 542.2238950000001C1169.941675 607.1269990000001 1117.200376 659.868297 1052.297272 659.868297L1052.297272 659.868297zM678.171214 68.15427999999997c-140.28222 0-254.073377 113.791157-254.073377 254.193791 0 140.28222 113.791157 254.073377 254.073377 254.073377 140.28222 0 254.073377-113.791157 254.073377-254.073377C932.244591 181.94543699999997 818.453434 68.15427999999997 678.171214 68.15427999999997L678.171214 68.15427999999997zM1020.62841 446.01317c-36.003763 0-65.264346 29.260583-65.264346 65.264346s29.140169 65.143932 65.264346 65.143932c36.003763 0 65.264346-29.140169 65.264346-65.143932S1056.752587 446.01317 1020.62841 446.01317L1020.62841 446.01317zM1020.62841 446.01317M676.967074 475.394167c-85.01223 0-154.009407-68.997178-154.009407-154.009407 0-85.01223 68.876764-154.009407 154.009407-154.009407 85.01223 0 154.009407 68.997178 154.009407 154.009407C830.976482 406.39699 762.099718 475.394167 676.967074 475.394167L676.967074 475.394167zM676.967074 475.394167"  horiz-adv-x="1356" />

    
    <glyph glyph-name="yiliao" unicode="&#58987;" d="M312.679 613.644h35.657c9.847 0 17.828 7.982 17.828 17.828 0 29.539 23.947 53.485 53.485 53.485h178.285c29.539 0 53.485-23.947 53.485-53.485 0-9.847 7.982-17.828 17.828-17.828h35.657c9.847 0 17.828 7.982 17.828 17.828v35.657c0 49.232-39.911 89.143-89.143 89.143h-249.6c-49.232 0-89.143-39.911-89.143-89.143v-35.657c0-9.847 7.982-17.828 17.828-17.828v0zM651.422 283.79200000000003c0-14.769-11.949-26.719-26.719-26.719h-44.595c-9.847 0-17.828-7.982-17.828-17.828v-62.423c0-14.769-11.949-26.719-26.719-26.719h-35.657c-14.769 0-26.767 11.949-26.767 26.719v62.423c0 9.847-7.982 17.828-17.828 17.828h-44.547c-14.817 0-26.767 11.949-26.767 26.719v35.657c0 14.769 11.949 26.767 26.767 26.767h44.547c9.847 0 17.828 7.982 17.828 17.828v44.547c0 14.769 11.997 26.767 26.767 26.767h35.657c14.769 0 26.719-11.997 26.719-26.767v-44.547c0-9.847 7.982-17.828 17.828-17.828h44.595c14.769 0 26.719-11.997 26.719-26.767v-35.657zM794.051 577.9870000000001h-570.515c-49.232 0-89.143-39.911-89.143-89.143v-374.4c0-49.232 39.911-89.143 89.143-89.143h570.515c49.232 0 89.143 39.911 89.143 89.143v374.4c0 49.232-39.911 89.143-89.143 89.143v0z"  horiz-adv-x="1024" />

    
    <glyph glyph-name="chongwu" unicode="&#58929;" d="M311.4 363.1c88.9 19.6 117.3 99.2 78.3 189.1-15.4 35.6-77.6 157.6-103.1 207.5-13.8-11.6-25.2-24.9-33.2-39.7-30.4-56-32.5-180.3-47.8-335.5 27.7-18.4 63.3-30.7 105.8-21.4z m635.2 210c-0.8 20.8-18.9 36.4-39.4 34.3-34.5-3.5-87.6-3.5-132.9 19.4-74 37.5-42.1 91.6-103.2 148.7-61.9 57.9-220.7 64.2-327.3 18.5 41.8-84.9 103.1-211.6 117.8-252.6 42.2-118.4-23.1-214.6-124-245.1-59.1-17.9-105.7-8.2-140.6 10.5-3-23.7-6.4-48-10.3-72.7-10.9-68.4-25.5-125.1-39.9-169.8-7.7-11-12.2-24.3-12.2-38.7 0-37.4 30.3-67.7 67.7-67.7 3.5 0 6.9 0.3 10.3 0.8l0.6-0.6h473c1.1-0.1 2.3-0.2 3.4-0.2 22.4 0 40.6 18.2 40.6 40.6 0 6.6-1.6 12.9-4.4 18.4-16.4 65.7-56.6 121.8-110.8 158.4 2.1 44.4 12.5 85.2 37.8 112 52.7 55.9 185.2 14.4 257.1 109.2 35.4 46.9 38.5 128 36.7 176.6z m-332.1-17.4c-28.2 0-51.1 22.9-51.1 51.2 0 28.3 22.9 51.2 51.1 51.2 28.2 0 51.1-22.9 51.1-51.2 0-28.3-22.9-51.2-51.1-51.2z"  horiz-adv-x="1024" />

    
    <glyph glyph-name="liwu1" unicode="&#59104;" d="M217.14944 576.64h561.72544c1.90464 1.14176 3.79392 2.28864 5.67296 3.44576 40.0384 24.74496 66.76992 49.44384 74.84928 76.74368 8.36096 28.22656-4.91008 53.86752-36.51072 72.15616-36.45952 21.10976-81.44384 23.52128-132.46464 11.27936-36.38272-8.7296-74.65472-24.61184-113.51552-45.58336a735.7952 735.7952 0 0 1-71.38816-44.03712 654.5408 654.5408 0 0 1-19.73248 16.9728c-56.3456 46.45888-112.78336 76.95872-167.35744 83.60448-44.35456 5.4016-85.42208-5.56032-120.90368-34.7904l-2.54464-2.4576c-1.14688-1.3056-2.24768-2.62144-3.30752-3.94752-35.80416-44.9024-19.35872-91.78112 25.47712-133.38624zM865.81248 511.78496H160.62976c-36.608 0-66.10432-23.14752-66.10432-51.73248v-57.2928c0-18.2528 12.14464-34.304 30.44352-43.50976h776.576c18.2784 9.20064 30.36672 25.23136 30.36672 43.50976v57.2928c0 28.53376-29.5936 51.73248-66.0992 51.73248zM127.58016 294.84032v-221.94688c0-37.63712 39.41888-67.95264 88.17664-67.95264h594.92864c48.83456 0 88.17664 30.3872 88.17664 67.95264v221.90592c0.91648 0.41472 1.80224 0.84992 2.68288 1.29536H124.96896c0.86016-0.42496 1.72032-0.86016 2.6112-1.2544z"  horiz-adv-x="1024" />

    
    <glyph glyph-name="shouyi" unicode="&#58884;" d="M282.437485 664.126771C338.780513 682.90778 401.624659 693.742978 469.525231 693.742978c4.334079 0 8.668158-0.722347 13.002237-0.722347 11.557544 19.503356 19.503356 42.618444 19.503356 67.178225C502.030824 832.433507 443.520756 890.943574 371.286106 890.943574S239.819041 832.433507 239.819041 760.198856c0-37.562018 16.61397-71.512304 42.618444-96.072085z m702.120806-279.548099h-39.729058c-20.948049 0-28.89386 9.390505-31.783246 18.781009-23.837435 66.455879-64.288839 127.132986-119.90952 157.471539-8.668158 5.056426-6.501119-67.900572 19.503355-120.631867-9.390505 7.223465-57.787721 51.286602-64.288839 128.577679-6.501119 77.291076 7.223465 123.521253 37.562019 206.591101-62.1218-15.169277-130.744718-49.119563-171.196123-138.69053-45.50783 10.835198-94.627393 17.336316-145.191648 17.336317-133.634104 0-241.98608-39.729058-316.387771-109.79667-10.835198-10.112851-46.230177-65.733532-69.345265-55.620681-72.234651 30.338553-27.449167 132.911758 49.119563 76.56873C104.017897 651.84688 0 619.341287 0 527.603281c0-87.403928 72.956997-93.1827 58.510067-140.135223-10.835198-36.117325-15.891623-75.846383-15.891623-117.742481 0-97.516779 72.234651-171.918469 124.2436-213.814567 7.223465-5.778772 22.392742-15.169277 14.44693-39.729058s-21.670395-57.787721-21.670396-57.78772c-7.945812-21.670395 2.889386-45.50783 24.559782-54.175989l78.013423-29.616206c21.670395-7.945812 45.50783 2.889386 54.175988 24.559781 0 0 10.112851 27.449167 18.781009 49.841909 15.891623 42.618444 26.004474 7.945812 135.078797 7.945812 114.130748 0 125.688293 22.392742 137.245837-13.002238 7.945812-22.392742 17.336316-44.785484 17.336316-44.785483 7.945812-21.670395 32.505593-32.505593 54.175988-24.559781l78.013423 29.616206c21.670395 7.945812 32.505593 32.505593 24.559781 54.175989l-12.27989 33.227939s-13.002237 21.670395 14.44693 36.839672c54.898335 29.616207 95.349739 74.40169 122.07656 130.022372 5.778772 12.279891 13.724584 28.171514 39.729058 28.171513h39.729058c21.670395 0 39.729058 18.058663 39.729058 39.729058V344.849614c-1.444693 22.392742-18.781009 39.729058-40.451405 39.729058z m-178.419587-118.464828c-32.505593 0-59.232414 26.726821-59.232414 59.232414 0 32.505593 26.726821 59.232414 59.232414 59.232414 32.505593 0 59.232414-26.726821 59.232414-59.232414 0-32.505593-26.726821-59.232414-59.232414-59.232414z"  horiz-adv-x="1025" />

    
    <glyph glyph-name="gupiao" unicode="&#58990;" d="M511.777488-127.55497600000001a511.777488 511.777488 0 1 0 511.777488 511.777488 511.777488 511.777488 0 0 0-511.777488-511.777488z m204.710995 785.022164l-238.755324-136.84485 68.31117-68.311169-102.355498-170.666667-68.311169 34.044329-102.355498-204.710995 136.622338 102.355497 68.088657-34.044328 136.622339 238.977836 102.355497-68.31117z"  horiz-adv-x="1024" />

    
    <glyph glyph-name="shyp" unicode="&#58885;" d="M513.516643 886.933241A503.322154 503.322154 0 0 1 10.195671 383.609905a503.322154 503.322154 0 0 1 503.320972-503.320972 503.322154 503.322154 0 0 1 503.323336 503.320972A503.322154 503.322154 0 0 1 513.516643 886.933241z m30.27139-178.866941c110.648741-21.282651 45.402357-201.037354-38.924412-202.701761-22.928143-0.452747-41.895046 17.452625-42.366707 39.963484-0.24706 11.79979 4.6906 22.439933 12.682824 30.04679 13.623781 34.621543 92.093211 28.465131 68.608295 132.691487z m139.152882-52.435893l53.433591-75.987006L595.102107 402.139429l-87.310407 18.248182L682.940915 655.630407z m-0.167859-37.252913L547.740999 441.172595l43.242648-10.089282 113.280111 145.032681-21.490702 42.2615z m82.20016-27.084431s59.11125-34.417039 30.274936-110.108518h0.002365c10.516022 8.286569-132.548451-150.455005-132.548452-150.455005s-15.952531-23.724883-64.108015-1.264854c-232.651618-3.761464-316.389698-246.167827-316.389698-246.167827s-76.429114-41.877315-78.269654 46.130535c-1.842904 88.03622 217.117553 235.325543 388.988786 234.677749 15.271638 17.291858 172.049732 227.189102 172.049732 227.189102z"  horiz-adv-x="1024" />

    
    <glyph glyph-name="fangzu" unicode="&#58896;" d="M512-128C229.239467-128 0 101.239467 0 384S229.239467 896 512 896 1024 666.760533 1024 384 794.760533-128 512-128z m299.781689 588.231111l-258.048 218.498845a48.082489 48.082489 0 0 1-61.189689 0.728177l-257.592889-208.0768a19.8656 19.8656 0 1 1 24.9856-30.947555l20.297956 16.384v-285.422934c0-26.441956 21.549511-25.213156 47.991466-25.213155h85.105778c26.441956 0 47.968711-1.2288 47.968711 25.213155v156.694756c0 4.551111 3.640889 8.146489 8.169245 8.146489h98.668089c4.551111 0 8.169244-3.618133 8.169244-8.146489v-156.694756c0-26.441956 21.549511-25.213156 47.968711-25.213155h82.375111c26.464711 0 48.014222-1.2288 48.014222 25.213155V456.362667l31.311645-26.532978a19.842844 19.842844 0 0 1 28.080355 2.343822 19.933867 19.933867 0 0 1-2.275555 28.080356z"  horiz-adv-x="1024" />

    
    <glyph glyph-name="lingshi" unicode="&#58898;" d="M512-128C229.239467-128 0 101.23946699999999 0 384S229.239467 896 512 896 1024 666.760533 1024 384 794.760533-128 512-128z m298.939733 694.590578c-9.375289 4.687644-15.018667 15.018667-14.085689 26.305422 2.298311 27.079111-6.5536 31.061333-12.196977 38.570667-5.620622 7.509333-34.292622 8.3968-43.690667 11.218489-9.375289 2.798933-15.701333 36.841244-26.737778 45.078755-11.514311 8.578844-41.324089 1.888711-55.409778-29.127111-14.108444-30.993067 0-108.976356 0-108.976356-1.661156-11.969422-21.617778-5.620622-21.617777-5.620622-42.234311 11.264-75.821511 5.620622-75.821511 5.620622-65.080889-9.329778-109.340444-34.816-139.332267-66.946844-57.070933-53.020444-70.087111-123.107556-70.496711-148.138667-0.728178-43.758933 14.791111-73.955556 8.214755-82.420622-0.932978-6.599111-29.718756 3.822933-73.250133 5.643378-52.701867 2.184533-82.625422-24.439467-81.692444-34.770489 0.932978-10.331022 21.617778-16.907378 30.993066-21.617778 9.375289-4.687644 15.018667-15.018667 14.085689-26.282666-2.275556-27.079111 6.5536-31.061333 12.196978-38.593423 5.620622-7.509333 34.292622-8.3968 43.690667-11.218489 9.375289-2.821689 15.701333-36.841244 26.737777-45.078755 11.514311-8.578844 41.324089-1.888711 55.409778 29.127111 14.108444 30.993067 0 108.976356 0 108.976356 1.661156 11.969422 21.617778 5.620622 21.617778 5.620622 42.234311-11.264 75.821511-5.620622 75.821511-5.620622 65.1264 9.329778 109.3632 34.861511 139.355022 66.9696 57.048178 53.020444 70.0416 123.107556 70.473956 148.093155 0.750933 43.781689-14.791111 74.001067-8.214756 82.443378 0.932978 6.599111 29.718756-3.822933 73.250134-5.643378 52.701867-2.184533 82.625422 24.439467 81.692444 34.770489-0.910222 10.331022-21.617778 16.907378-30.993067 21.617778z"  horiz-adv-x="1024" />

    
    <glyph glyph-name="jiaotong" unicode="&#58900;" d="M600.2688 218.58986700000003a51.427556 51.427556 0 0 1 51.473067-51.4048 51.427556 51.427556 0 0 1 51.473066 51.427555 51.427556 51.427556 0 0 1-51.473066 51.382045 51.427556 51.427556 0 0 1-51.473067-51.4048zM318.737067 218.58986700000003a51.427556 51.427556 0 0 1 51.473066-51.4048 51.427556 51.427556 0 0 1 51.495823 51.427555 51.427556 51.427556 0 0 1-51.495823 51.382045 51.427556 51.427556 0 0 1-51.473066-51.4048zM448.534756 668.444444h126.976c8.942933 0 16.133689 5.12 16.133688 11.400534 0 6.303289-7.259022 11.355022-16.110933 11.355022h-126.976c-8.942933 0-16.201956-5.12-16.201955-11.355022-0.068267-6.280533 7.259022-11.400533 16.1792-11.400534zM511.863467 895.704178C229.102933 895.704178 0 666.874311 0 384.568889s229.102933-511.135289 511.863467-511.135289c282.692267 0 511.863467 228.829867 511.863466 511.135289S794.555733 895.704178 511.863467 895.704178zM750.865067 230.85511099999997c0-51.291022-40.891733-92.9792-91.386311-92.9792h2.412088l79.963023-106.860089h-70.223645l-36.135822 54.772622h-244.622222l-36.022045-54.772622h-70.291911l79.963022 106.860089C314.026667 137.853156 273.066667 179.541333 273.066667 230.832356V619.4062220000001c0 51.427556 40.96 93.070222 91.477333 93.070222H455.111111a35.84 35.84 0 0 0 12.288 69.472712 35.84 35.84 0 0 0 12.219733-69.563734h64.671289a35.908267 35.908267 0 0 0 12.242489 69.540978c19.797333 0 35.726222-16.088178 35.726222-35.908267 0-15.496533-9.739378-28.558222-23.438222-33.632711h90.7264c50.494578 0 91.386311-41.642667 91.386311-93.070222V230.85511099999997h-0.068266zM639.431111 622.933333H384.637156C360.743822 622.933333 341.333333 602.5216 341.333333 577.194667v-67.879823c0-25.258667 19.342222-45.6704 43.281067-45.6704H639.431111C663.369956 463.644444 682.666667 484.056178 682.666667 509.314844v67.970845C682.666667 602.5216 663.324444 622.933333 639.431111 622.933333z"  horiz-adv-x="1024" />

    
    <glyph glyph-name="yundong" unicode="&#58902;" d="M512-128C229.239467-128 0 101.23946699999999 0 384S229.239467 896 512 896 1024 666.760533 1024 384 794.760533-128 512-128zM841.955556 372.62222199999997a323.492978 323.492978 0 0 1-25.281423 118.556445c-15.997156 38.320356-39.5264 73.045333-70.610489 104.129422-31.106844 31.084089-65.809067 54.499556-104.129422 70.269155A337.874489 337.874489 0 0 1 523.377778 691.2c4.824178-35.475911 16.315733-71.384178 34.474666-107.7248 18.204444-36.340622 43.030756-70.291911 74.569956-101.808356 31.516444-31.5392 65.467733-56.502044 101.808356-74.888533 36.340622-18.386489 72.248889-29.787022 107.7248-34.156089zM493.954844 691.2c-36.2496-3.413333-71.224889-12.788622-104.903111-28.148622a319.761067 319.761067 0 0 1-92.137244-63.965867 319.761067 319.761067 0 0 1-63.965867-92.114489A324.790044 324.790044 0 0 1 204.8 402.067911c39.662933-4.7104 79.416889-16.748089 119.307378-36.181333 39.867733-19.387733 77.095822-46.353067 111.638755-80.896 34.542933-34.542933 61.622044-71.771022 81.237334-111.638756 19.615289-39.867733 31.766756-79.644444 36.4544-119.307378a326.473956 326.473956 0 0 1 104.607289 27.830045c33.450667 15.132444 64.079644 36.568178 91.795911 64.284444 27.716267 27.716267 49.152 58.322489 64.284444 91.795911A326.473956 326.473956 0 0 1 841.955556 342.584889c-39.662933 4.687644-79.416889 16.839111-119.307378 36.4544-39.867733 19.615289-77.095822 46.6944-111.638756 81.237333-34.542933 34.542933-61.508267 71.771022-80.918755 111.638756-19.410489 39.867733-31.448178 79.644444-36.135823 119.307378zM204.8 372.62222199999997c1.319822-40.732444 9.853156-80.258844 25.622756-118.556444 15.7696-38.320356 39.185067-73.045333 70.269155-104.129422 31.106844-31.084089 65.809067-54.613333 104.129422-70.610489A323.492978 323.492978 0 0 1 523.377778 54.044444c-4.369067 35.475911-15.7696 71.384178-34.156089 107.7248-18.386489 36.340622-43.349333 70.291911-74.865778 101.808356-31.5392 31.5392-65.490489 56.388267-101.831111 74.569956C276.184178 356.30648900000006 240.275911 367.798044 204.8 372.62222199999997z"  horiz-adv-x="1024" />

    
    <glyph glyph-name="gongzi" unicode="&#58970;" d="M881.614617 294.599877c-28.888957 103.58724-90.816378 183.636391-187.550536 238.002603-8.352225 4.707209-17.038048 8.832156-25.724895 12.997012-40.764426 9.956769-94.715175 18.87079-157.370167 18.870789-62.698994 0-116.646674-8.912997-157.431565-18.911722-151.683654-67.865667-214.567867-171.284061-225.524407-322.364988-2.854001-39.240723-0.478907-78.111009 9.830903-116.562763 16.101723-60.594053 71.634504-105.9828 138.289599-105.857956 156.975171 0.334621 314.115094 0 471.088219 0.209778 50.448996 0.124843 89.276303 21.850657 117.458155 61.427024 14.332427 20.119223 21.061688 42.970674 24.870434 66.966181 9.103332 55.491849 7.228635 110.775966-7.93574 165.224042zM616.743064 153.60260900000003h-63.696717c-0.813528 0-1.417279-0.688685-1.41728-1.375323v-29.328979h-0.333597c0.459464-2.394537 0.811482-4.894474 0.811481-7.393387 0-21.039175-18.10024-38.202067-40.389895-38.202067-22.242584 0-40.367383 17.038048-40.367383 38.202067 0 2.623757 0.376577 4.998851 0.832971 7.393387h-0.832971V152.247752c0 0.791016-0.686638 1.353834-1.416256 1.353834H406.737096c-17.791202 0-32.348756 13.644765-32.348755 30.577413 0 16.95516 14.455223 30.598902 32.348755 30.598902h63.196321c0.833995 0 1.416256 0.668219 1.416256 1.353834v27.64257c0 0.792039-0.686638 1.373277-1.416256 1.373277h-63.092967v0.106424h-0.103354c-17.791202 0-32.348756 13.641695-32.348755 30.596855 0 16.832364 14.455223 30.578436 32.348755 30.578436h57.864896c0.62524 0 1.206478 0.334621 1.332345 0.895393 0.458441 1.270946 1.042749 2.397606 1.749853 3.542686 0.373507 0.562818 0.248663 1.25048-0.208754 1.705851l-71.529104 67.656913c-8.998955 8.41567-6.0416 25.01779 6.499018 36.848233 12.561084 11.83249 30.078039 14.663978 38.972617 6.124487l69.718874-66.051345c0.603751-0.562818 1.540076-0.562818 2.145873 0l64.51127 65.051575c10.204409 10.56052 30.908964 7.957229 43.574424-4.103458 12.559037-12.06171 18.828834-22.976294 6.41613-36.264948l-75.779917-73.361845c-0.37453-0.332575-0.479931-0.665149-0.479931-1.125636 0.105401-0.687662 0.708128-1.25048 1.416256-1.250481h63.593364v-0.12382c17.749246-0.12382 32.079626-13.749142 32.079626-30.578435 0-16.83134-14.33038-30.474059-32.079626-30.474059h-63.48694c-0.813528 0-1.417279-0.687662-1.417279-1.375324v-27.641547c0-0.789992 0.708128-1.353834 1.417279-1.353834h63.696718v-0.104377c17.767666-0.12382 32.076556-13.767562 32.076556-30.579459-0.001023-16.619516-14.308891-30.159904-32.07758-30.263258zM329.497944 585.1953020000001c42.535769 12.248975 105.817024 25.393343 181.471075 25.393343 75.489298 0 138.600685-13.080923 181.157943-25.287943 7.644097 10.747785 13.935384 22.330588 18.641569 34.868136 4.247744 11.375072 6.625908 23.309892 9.956769 35.016514 7.561209 27.183106 0.229221 50.596352-21.684881 68.550259-29.599132 24.246217-63.343677 27.079752-98.857519 12.873192-2.478448-1.02126-4.14439-1.707898-6.51846 0.562819-45.699832 41.513486-119.104655 41.971927-165.160598 0.895393-2.125407-1.917676-3.664459-2.37407-6.51846-1.125637-18.707061 8.289804-38.246069 9.998725-58.242496 6.0416-38.012755-7.520277-69.384253-38.557154-63.820537-80.988546 3.747347-28.493961 13.496385-54.009078 29.575595-76.79913z m0 0"  horiz-adv-x="1024" />

    
    <glyph glyph-name="daikuan" unicode="&#58887;" d="M512 896C228.073 896 0 667.927 0 384s228.073-512 512-512 512 228.073 512 512S795.927 896 512 896zM386.327 356.073V230.4h-86.109V409.6h418.91v-179.2h-86.11V356.073h-246.69zM235.055 546.909c48.872 20.946 81.454 58.182 97.745 111.71h83.782c-9.31-32.583-20.946-58.183-34.91-76.8v-151.274h-83.781v86.11c-18.618-6.982-39.564-13.964-62.836-18.619V546.91z m521.309-423.564c-114.037 6.982-200.146 32.582-253.673 72.146-53.527-41.891-141.964-65.164-265.31-72.146v51.2c153.6 18.619 228.074 60.51 218.764 125.673v34.91h93.091v-34.91c-6.981-65.163 60.51-107.054 207.128-125.673v-51.2zM665.6 418.91c-93.09-2.327-151.273 44.218-176.873 134.982h-88.436v53.527h74.473c-2.328 16.291-4.655 32.582-4.655 51.2h86.11c2.326-18.618 4.654-34.909 6.981-51.2h58.182V649.31h74.473v-41.89h62.836v-53.528H574.836c16.291-55.855 46.546-83.782 90.764-81.455 27.927 0 41.89 13.964 39.564 39.564H768c4.655-65.164-30.255-95.418-102.4-93.09z"  horiz-adv-x="1024" />

    
    <glyph glyph-name="shuidian" unicode="&#59052;" d="M788.537853 408.587571L512 875.751412 235.462147 414.662147c-36.736723-55.249718-61.613559-122.937853-61.613559-190.625989C173.848588 39.774011 327.737853-107.751412 512-107.751412s338.151412 147.525424 338.151412 325.712994c0 73.762712-24.587571 135.376271-61.613559 190.625989z m-134.508474-119.466667l-200.750283-208.271186c-3.471186-5.20678-9.256497-8.388701-15.620339-8.388701-10.413559 0-18.80226 8.099435-18.80226 18.223729v1.446327l0.289266 0.578532c0.289266 2.892655 1.157062 5.496045 2.892655 8.099435l42.8113 120.912994h-83.308475v0.289265c-0.867797-0.289266-1.735593-0.289266-2.892655-0.289265-7.810169 0-14.463277 6.363842-14.463277 14.174011 0 4.338983 2.024859 8.677966 5.78531 11.281356l172.112995 196.989831c3.471186 5.20678 9.256497 8.388701 15.620339 8.3887 10.413559 0 18.80226-8.099435 18.80226-18.223729 0-0.578531 0-0.867797-0.289266-1.446327h0.289266l-0.289266-1.157062c0-0.867797-0.289266-1.446328-0.578531-2.314125l-25.166102-114.838418H642.169492v-0.289265c0.867797 0.289266 1.735593 0.289266 2.892655 0.289265 7.810169 0 14.463277-6.363842 14.463277-14.174011 0.289266-4.338983-2.024859-8.677966-5.496045-11.281356z"  horiz-adv-x="1024" />

    
    <glyph glyph-name="lvyou" unicode="&#58888;" d="M828.87139 147.78c0 22.604-18.084 42.948-42.95 42.948H62.56739c-22.605 0-42.95-18.083-42.95-42.949 0-22.605 18.085-42.949 42.95-42.949H788.18339c22.605 0 40.689 20.344 40.689 42.95z m-137.89-135.63H157.50739c-22.605 0-42.95-18.084-42.95-42.95 0-22.604 18.084-42.948 42.95-42.948h533.474c22.605 0 42.95 18.084 42.95 42.949s-18.085 42.95-42.95 42.95z m278.04 350.375C1005.18939 414.517 1025.53339 475.55 1025.53339 536.583c0 165.015-135.63 300.644-300.645 300.644-117.545 0-223.788-67.814-273.518-174.057-9.042 11.302-15.824 22.605-24.866 33.907l-56.512 76.857c-9.042 11.302-22.605 18.084-36.168 18.084-13.563 0-27.125-9.042-33.907-20.345L6.05439 301.493c-11.302-20.345-6.781-45.21 13.563-58.773 4.52-4.521 11.302-4.521 18.084-6.782l309.686 2.26H697.76339l103.982-2.26H978.06339c9.042 0 18.084 2.26 24.865 9.042 18.084 13.563 22.605 40.689 9.042 58.773l-42.95 58.772zM521.44539 608.918c29.386 85.899 113.024 144.671 203.443 144.671 119.806 0 217.007-97.2 217.007-217.006 0-33.908-9.042-70.075-27.126-101.722l-67.814 90.42c-6.782 11.302-20.345 15.823-31.647 15.823-11.303 0-24.866-4.521-33.907-13.563-42.95-49.73-92.68-106.243-124.327-137.89-27.126 33.907-74.596 97.201-149.192 198.923 4.52 4.52 9.042 11.302 13.563 20.344zM824.35039 12.15c-22.605 0-42.95-18.084-42.95-42.95s18.084-42.948 42.95-42.948c22.605 0 42.949 18.084 42.949 42.949s-20.344 42.95-42.95 42.95z"  horiz-adv-x="1025" />

    
    <glyph glyph-name="xuexi" unicode="&#59375;" d="M946.35 828.656h-255.5c-76.751 0-143.918-42.905-178.85-103.217-34.932 60.312-102.099 103.217-178.85 103.217H77.65C35.492 828.656 1 794.164 1 752.006v-670.792c0-42.157 34.492-76.65 76.65-76.65h268.275c76.862 0 118.412-65.219 166.075-65.219s89.213 65.219 166.075 65.219H946.35c42.158 0 76.65 34.493 76.65 76.65V752.006c0 42.158-34.492 76.65-76.65 76.65zM371.475 230.05499999999995h-204.4c-14.052 0-25.55 11.498-25.55 25.55 0 14.054 11.498 25.55 25.55 25.55h204.4c14.052 0 25.55-11.496 25.55-25.55 0-14.052-11.498-25.55-25.55-25.55z m0 148.522h-204.4c-14.052 0-25.55 11.498-25.55 25.55s11.498 25.55 25.55 25.55h204.4c14.052 0 25.55-11.498 25.55-25.55s-11.498-25.55-25.55-25.55z m0 148.52h-204.4c-14.052 0-25.55 11.498-25.55 25.55s11.498 25.55 25.55 25.55h204.4c14.052 0 25.55-11.498 25.55-25.55s-11.498-25.55-25.55-25.55zM537.55 79.52800000000002c0-14.052-11.498-25.55-25.55-25.55-14.051 0-25.548 11.498-25.548 25.55v536.55c0 14.054 11.498 25.55 25.548 25.55 14.052 0 25.55-11.496 25.55-25.55v-536.55z m319.375 150.527h-204.4c-14.052 0-25.55 11.498-25.55 25.55 0 14.054 11.498 25.55 25.55 25.55h204.4c14.052 0 25.55-11.496 25.55-25.55 0-14.052-11.498-25.55-25.55-25.55z m0 148.522h-204.4c-14.052 0-25.55 11.498-25.55 25.55s11.498 25.55 25.55 25.55h204.4c14.052 0 25.55-11.498 25.55-25.55s-11.498-25.55-25.55-25.55z m0 148.52h-204.4c-14.052 0-25.55 11.498-25.55 25.55s11.498 25.55 25.55 25.55h204.4c14.052 0 25.55-11.498 25.55-25.55s-11.498-25.55-25.55-25.55z"  horiz-adv-x="1024" />

    
    <glyph glyph-name="yule" unicode="&#59015;" d="M1008.426748 604.261264a52.706609 52.706609 0 0 0-74.527737 0l-114.687506 114.675157v-437.385818c0-113.094452-114.601061-204.775301-255.975302-204.775302S307.273251 168.50554799999998 307.273251 281.550603 421.874312 486.325904 563.248553 486.325904c57.708056 0 110.772793-15.461264 153.575301-41.234153V841.675639a52.793054 52.793054 0 0 0 0.926194 12.06522A51.051809 51.051809 0 0 0 758.971852 894.950314a52.644863 52.644863 0 0 0 47.680463-14.37453l201.786783-201.786783a52.706609 52.706609 0 0 0-0.01235-74.527737zM563.248553 383.93825400000003c-84.814665 0-153.575301-45.840425-153.575302-102.387651s68.760637-102.375301 153.575302-102.375302 153.575301 45.840425 153.575301 102.375302-68.760637 102.387651-153.575301 102.387651z m50.175012 247.096189c-67.019392-24.883743-85.370381-93.508538-152.179836-93.508539-81.628558 0-90.915195 102.387651-204.997588 102.387651C171.629064 639.901206 102.621442 560.569609 102.621442 435.125904c0-319.845634 291.170671-460.738254 358.646985-460.738253 13.238398 0 35.812832 7.903521 63.536903 23.179546 21.228365 9.064351 48.55726 28.526773 93.360348 28.526773 53.6822 0 74.095514-42.93835-10.632707-93.063965-60.807718-39.97453-115.206175-61.030005-146.264544-61.030005C358.473251-127.98765100000003 0.122648 51.360540000000015 0.122648 435.125904c0 222.410034 134.001737 307.162952 256.16054 307.162953 151.525326 0 204.997588-102.375301 204.997588-102.375302s41.332947 79.257501 154.464448 98.312398c66.154945 22.426242 67.661553-88.457694-2.334009-107.19151z"  horiz-adv-x="1024" />

    
    <glyph glyph-name="clothes" unicode="&#58893;" d="M934.625 492.38L750.797 717.66a82.903 82.903 0 0 1-64.88 30.638h-11.715a83.886 83.886 0 0 1-75.694-47.76 103.67 103.67 0 0 0-89.211-60.374c-37.847 1.802-72.991 25.231-89.211 60.375a83.886 83.886 0 0 1-75.694 47.76h-10.814a82.903 82.903 0 0 1-64.88-30.639L85.77 492.38a84.521 84.521 0 0 1-18.022-66.683c3.604-23.429 18.022-44.155 37.847-57.671l111.739-70.288V58.04c0-49.561 40.55-90.112 90.112-90.112h394.69c49.562 0 90.112 40.55 90.112 90.112V291.43l122.553 77.497a83.087 83.087 0 0 1 37.847 57.671 83.395 83.395 0 0 1-18.023 65.782zM343.491 659.988a16.077 16.077 0 0 0 22.528-8.11c27.934-56.77 84.705-91.914 148.684-91.914 63.079 0 119.85 35.144 148.685 91.914 4.506 8.11 14.418 11.715 22.528 8.11 8.11-4.505 11.715-14.417 8.11-22.528-34.242-68.485-102.727-110.837-178.422-110.837-76.595 0-145.08 42.352-178.421 110.837a15.483 15.483 0 0 0 6.308 22.528z m357.744-603.75H308.347a17.1 17.1 0 1 0 0 34.243h392.888a17.1 17.1 0 1 0 0-34.243z"  horiz-adv-x="1024" />

    
    <glyph glyph-name="canyin" unicode="&#58901;" d="M512 896C229.268 896 0 666.732 0 384s229.268-512 512-512 512 229.268 512 512S794.732 896 512 896zM184.233 571.846c-3.05 20.069 0.562 39.094 14.21 54.106 0.16 0.16 0.16 0.401 0.4 0.642 15.975 20.069 37.89 25.929 61.572 22.477 55.47-8.108 101.469-33.876 133.74-80.195 19.427-28.097 24.083-59.324 9.312-91.756-2.248-4.656-0.562-7.305 2.649-10.355 24.564-23.12 48.808-46.16 73.131-69.279 7.546-7.064 7.707-6.903 0.402-13.968-9.954-9.472-20.47-18.784-30.023-28.738l-1.044-1.044c-0.16 0-0.16-0.16-0.401-0.16-0.16-0.161-0.402-0.402-0.643-0.402-0.16-0.16-0.16-0.16-0.401-0.16-0.16-0.161-0.401-0.161-0.401-0.402-0.16 0-0.16-0.16-0.402-0.16-0.16 0-0.16-0.161-0.401-0.161-0.16 0-0.16-0.16-0.401-0.16-0.161 0-0.161-0.161-0.402-0.161-0.16 0-0.16-0.16-0.401-0.16h-0.402c-0.16 0-0.16 0-0.401-0.161h-1.044c-0.562 0-1.204 0.16-1.766 0.401-0.16 0-0.401 0.16-0.642 0.16h-0.16c-0.161 0-0.402 0.161-0.562 0.402h-0.402c-0.16 0.16-0.401 0.16-0.642 0.401l-0.16 0.161c-0.161 0.16-0.402 0.401-0.643 0.401-0.401 0.161-0.562 0.562-1.043 0.803l-1.044 1.044c-0.401 0.401-0.803 0.803-1.204 1.445-22.477 23.52-44.955 46.8-67.271 70.321-3.05 3.211-5.62 4.656-10.356 2.65-32.27-14.932-63.418-10.757-91.755 8.75-46.801 31.95-72.73 77.948-80.999 133.258z m552.78-437.183c-4.415-10.918-11.72-20.872-20.871-28.418-7.546-6.261-18.223-13.968-28.579-10.757h-0.16c-6.262 2.087-11.4 6.663-16.216 11.4-19.828 20.068-38.693 41.342-58.12 61.972-21.273 22.317-42.305 44.794-63.578 67.03-7.546 7.868-14.77 15.574-22.317 23.522-7.305 7.706-7.305 7.546 0 14.931 10.757 11.078 21.675 22.076 31.79 33.636 5.298 6.1 8.91 5.298 14.208 0.16 22.478-21.674 45.115-42.947 67.673-64.381 30.344-28.739 60.528-57.718 91.193-86.297 7.386-6.582 8.43-14.048 4.977-22.798z m102.111 423.616c-7.305-16.858-18.784-30.746-31.227-44.152-20.47-22.076-40.298-44.794-64.06-63.418-27.133-21.273-57.718-29.38-91.354-16.456-4.415 1.605-6.904-0.16-9.473-3.05-43.188-45.597-86.537-91.194-129.886-136.71-35.482-37.249-70.723-74.577-106.125-111.825-25.528-26.973-51.055-53.705-76.342-80.597-3.211-3.452-6.904-5.62-11.078-7.305h-1.445c-22.317 4.656-37.248 18.463-46.64 38.693-5.299 11.56-4.255 16.216 4.896 24.885C377.86 254.836 479.57 351.00699999999995 581.037 447.418c7.546 7.064 14.932 14.37 22.478 21.675 2.649 2.649 4.254 5.057 2.408 9.151-17.18 37.087-8.51 71.124 16.456 100.345 24.725 28.739 52.26 55.31 81.802 79.393 6.261 5.298 13.165 10.115 20.871 13.165 8.51 3.452 15.413 2.65 23.28-1.445 10.918-5.62 10.918-6.1 2.65-14.77l-63.82-66.309c-6.663-6.903-13.326-13.807-19.667-21.032-5.058-5.94-4.656-11.078 0.642-15.975 5.458-4.897 10.114-4.254 18.222 2.65l86.859 74.174c14.77 12.604 10.356 11.4 24.083-1.204 4.656-4.255 5.057-7.305 0.642-12.362-26.732-30.987-53.303-62.455-79.794-93.602-6.262-7.546-6.663-13.005-1.445-18.223 5.298-5.057 10.917-4.415 18.062 2.409 26.33 25.126 52.66 50.413 78.991 75.78 15.815 15.252 15.815 15.413 25.127-4.897 2.89-7.305 2.087-12.603 0.24-18.062z"  horiz-adv-x="1024" />

    
    <glyph glyph-name="hongbao" unicode="&#58894;" d="M815.104-128H206.848c-73.728 0-135.168 61.44-135.168 137.216V691.2l405.504-137.216h67.584L950.272 691.2v-681.984c0-75.776-59.392-137.216-135.168-137.216zM552.96 201.728h110.592c26.624 0 36.864 14.336 36.864 30.72 0 14.336-14.336 43.008-38.912 43.008H552.96V302.08s83.968 86.016 104.448 104.448c22.528 20.48 26.624 34.816 14.336 51.2-14.336 16.384-36.864 14.336-55.296 0-18.432-14.336-102.4-94.208-102.4-94.208s-73.728 75.776-88.064 90.112c-14.336 14.336-45.056 26.624-61.44 8.192-16.384-18.432-4.096-43.008 6.144-53.248s102.4-106.496 102.4-106.496v-28.672h-114.688c-16.384 0-32.768-30.72-30.72-47.104 0-16.384 14.336-28.672 30.72-28.672h114.688v-81.92h-118.784c-16.384 0-30.72-16.384-32.768-32.768 0-16.384 12.288-36.864 32.768-36.864h118.784v-38.912c2.048-26.624 18.432-36.864 40.96-36.864s38.912 18.432 38.912 34.816v40.96h116.736c18.432 0 32.768 18.432 32.768 36.864s-12.288 34.816-40.96 34.816H552.96v83.968zM544.768 623.616h-67.584L71.68 760.832C71.68 834.56 133.12 896 206.848 896h608.256c73.728 0 135.168-61.44 135.168-137.216l-405.504-135.168z"  horiz-adv-x="1024" />

    
    <glyph glyph-name="maicai" unicode="&#58967;" d="M509.952 894.464C229.376 894.464 2.048 666.624 2.048 386.048s227.328-507.904 507.904-507.904c280.576 0 507.904 227.328 507.904 507.904C1017.856 666.624 790.528 894.464 509.952 894.464zM340.48 640c7.68 1.024 38.912 4.608 56.32 2.048 8.704-2.048 16.384-9.216 22.528-16.384 0.512-1.024 2.048-0.512 2.048 0.512 0.512 12.288 4.096 23.552 13.824 39.936 0.512 0.512 1.024 0.512 1.536 0.512l20.48-11.776c0.512-0.512 0.512-1.024 0.512-1.536-7.168-10.752-9.728-19.968-9.728-28.672 0-1.024 1.024-1.536 1.536-1.024 8.704 4.096 17.92 7.68 26.624 6.656 19.968-2.048 36.864-10.24 41.984-12.8 0.512-0.512 1.024-1.536 0-2.048-6.144-4.096-31.232-20.992-47.616-26.624-1.024-0.512-1.024-1.536-0.512-2.048 4.608-4.608 8.192-9.216 11.264-14.848 5.12-18.432 3.584-36.864 3.072-41.984 0-0.512-0.512-1.024-1.024-1.024h-0.512c-6.656 4.096-33.28 20.992-44.544 34.304-3.584 4.096-5.12 9.216-6.144 14.848 0 1.024-1.536 1.536-2.048 0.512-7.168-8.704-16.896-17.408-27.136-19.456-19.456-4.608-37.888-2.048-44.032-1.536-1.024 0-1.024 1.024-0.512 2.048 4.608 6.144 23.552 30.72 37.376 41.472 0.512 0.512 0.512 2.048-0.512 2.048-9.216 0-17.408 2.048-23.552 6.144-16.896 10.752-27.648 25.6-30.72 30.208-2.048-0.512-1.536 0.512-0.512 0.512zM223.744 459.264c0 67.584 47.104 125.952 113.664 151.04 0.512 0 1.024 0 1.024-0.512 6.144-6.144 13.312-11.776 19.968-16.384 0.512 0 0.512-0.512 1.024-0.512-7.68-8.704-14.336-17.408-19.456-25.6l-14.848-21.504v-0.512c0-0.512 0.512-1.024 1.024-1.536l26.624-5.12c16.384-3.072 37.376-2.56 53.76 1.024 6.144 1.536 12.288 4.096 17.92 7.68 0.512 0.512 1.024 0 1.536 0 12.288-13.312 33.28-26.624 47.616-35.84l22.528-13.824h0.512c0.512 0 1.024 0.512 1.536 1.024l4.096 25.6c2.56 15.872 1.024 36.352-3.072 51.712-0.512 1.024-1.024 2.56-1.024 3.072 0 0.512 0 1.024 0.512 1.536 6.656 4.096 13.312 8.192 19.456 12.288 0.512 0 1.024 0.512 1.024 0 27.136-16.896 48.64-40.448 62.464-67.584v-1.024c-6.144-9.728-14.336-31.744-14.336-32.256l-62.976-23.552c-62.464-23.552-112.64-49.664-165.376-90.112-17.408-13.824-32.768-28.16-46.08-44.032-0.512-0.512-1.024-0.512-1.536 0-41.984 29.696-67.584 74.752-67.584 124.928z m548.864-65.536l-6.144-4.096c-0.512-0.512-1.024-0.512-1.536 0l-6.144 4.096s-0.512 0-1.024 0.512-1.536 0-1.536-0.512c-41.472-128.512-160.768-242.688-299.008-286.208-72.704-23.04-116.224-12.8-156.672 47.616-31.232 45.056-46.08 117.76 52.224 194.048C445.952 421.888 510.976 430.08 599.04 467.968c1.024 0.512 1.024 1.536 0 2.048l-2.048 1.024c-0.512 0-0.512 0.512-0.512 1.024l0.512 6.144s1.024 43.008 65.024 73.728c13.312 6.144 26.112 10.752 38.912 12.8 7.68 1.536 15.36 1.536 22.528 1.024 0.512 0 1.024 0.512 1.024 1.024 0.512 8.704 0.512 17.408 0.512 25.6-0.512 12.8-2.56 24.064-4.608 31.232l-4.608 14.336c-0.512 1.024 0.512 1.536 1.024 1.536l15.36-1.024 46.08-3.584 9.728-0.512c0.512 0 1.024-0.512 1.024-1.024V624.64c0-10.752-1.536-25.6-4.096-41.472-2.56-12.288-5.632-25.6-9.216-38.4 0-0.512 0-1.024 0.512-1.024 6.144-6.144 11.264-12.8 15.872-22.016 5.12-10.752 9.728-23.04 12.8-36.864 10.752-60.928-31.744-91.136-32.256-91.136zM779.776 480.256c-2.048 12.288-5.632 22.528-10.24 30.72-4.096 8.704-10.24 15.36-16.384 19.968l-5.12 4.096c-0.512 0.512-0.512 1.024-0.512 1.024l2.048 6.144c4.608 13.824 8.704 28.672 11.264 43.008 1.536 9.728 3.072 18.432 3.584 26.112 0 0.512-0.512 1.024-1.024 1.024l-17.408 1.536c-0.512 0-1.536-0.512-1.024-1.536 1.024-6.144 1.536-12.8 2.048-19.968 0.512-13.312 0.512-28.16-1.536-41.984l-1.536-10.752c0-0.512-0.512-1.024-1.536-1.024l-11.776 2.56c-8.704 2.048-17.92 2.048-27.648 0.512-9.728-0.512-20.48-4.096-31.232-9.728-34.304-16.384-46.08-35.84-50.176-46.08-0.512-0.512 0-1.536 1.024-1.536 9.216-2.048 25.088-3.584 47.616 4.096l17.92 5.632c1.024 0.512 1.536-0.512 1.536-1.536l-4.096-17.408c-3.584-15.36-1.536-29.184 1.024-37.888 0-0.512 1.024-1.024 1.536-1.024 8.704 3.072 20.992 9.216 33.792 24.576l13.312 15.36c0.512 0.512 1.536 0.512 2.048-0.512l4.608-19.456c4.608-18.432 14.848-31.232 22.528-38.912 0.512-0.512 1.024-0.512 1.536 0 8.192 10.752 20.48 30.72 13.824 62.976zM635.904 304.128c-0.512-0.512-49.152-56.32-92.672-74.24-7.168-3.072-10.752-11.264-7.68-18.432 2.048-5.632 7.168-8.704 12.8-8.704 1.536 0 3.584 0.512 5.12 1.024 50.176 20.48 101.376 79.36 103.424 81.92 5.12 5.632 4.608 14.848-1.536 19.456-5.632 5.12-14.848 4.608-19.456-1.024z"  horiz-adv-x="1024" />

    
    <glyph glyph-name="liwu2" unicode="&#58895;" d="M292.4 652.6l438.6 0.5c4.7 0 9.4 2.6 12 6.8 25.5 41.2 19.3 93.2-15.1 127.6-40.1 40.1-105.7 40.1-146.4 0l-69.8-70.8-70.3 70.3c-40.1 40.1-105.7 40.1-146.4 0-34.4-34.4-40.1-87-14.6-127.6 2.7-4.2 7.3-6.8 12-6.8z m584.5-36.5H146.6c-42.7 0-77.6-33.3-77.6-74.5s34.4-74 77.6-74h730.8c42.7 0 77.6 33.3 77.6 74.5s-34.9 74-78.1 74zM461.2 430.7H156.5v-371.4c0-59.9 49-108.9 108.9-108.9h215.1V430.7h-19.3z m380.3 0H542v-480.3h216.2c59.9 0 108.9 49 108.9 108.9V430.7h-25.6z m0 0"  horiz-adv-x="1024" />

    
    <glyph glyph-name="hongbao1" unicode="&#59020;" d="M826.368 896H173.312C69.99 896 47.104 865.434 47.104 749.875v-57.241c68.454-37.581 154.726-85.453 251.034-117.76 26.828 89.19 107.008 153.907 201.728 153.907 94.566 0 174.592-64.512 201.523-153.549 97.126 33.638 182.17 84.224 251.136 124.109v50.534C952.525 865.434 929.638 896 826.368 896zM499.814 289.946c-112.23 0-203.776 91.033-210.585 205.824-87.194 29.184-169.575 69.785-242.125 105.472v-604.468C47.104-118.784 69.99-128 173.312-128h653.056c103.27 0 126.157 9.216 126.157 124.826V606.925c-73.626-37.888-154.983-80.384-242.074-110.541-6.451-115.098-98.15-206.438-210.637-206.438zM553.062 657.05l-42.854-100.66c-3.533-8.448-6.144-14.95-7.782-19.456h-0.768l-51.815 120.218h-63.18l70.809-134.042h-53.709v-38.144H469.3v-32.972h-65.536v-38.196H469.3V358.4h59.955v55.296h63.386v38.195h-63.386v32.973h63.386v38.195h-52.48l72.909 133.99h-59.955z"  horiz-adv-x="1024" />

    
    <glyph glyph-name="laoren" unicode="&#58946;" d="M799.376537 235.628805a114.182408 114.182408 0 0 1-45.214612-9.129021c-1.139545 1.02559-1.595363 2.165135-2.734908 3.190726l-287.494539 285.899175a74.703505 74.703505 0 0 1-72.728293 18.827816l-0.569773 0.569772c-0.569772-0.569772-1.595363-0.569772-2.165135-1.02559a71.044299 71.044299 0 0 1-26.361474-14.497545C185.465668 413.283869 64.332036 157.544651 64.332036-54.144823c0-29.564862-4.330271-43.606588 0-72.171183h553.62894v279.061906l27.51368-27.513681a81.604083 81.604083 0 0 1 15.067317-11.876591 53.178766 53.178766 0 0 1 105.091371-5.482477h1.025591v10.851a31.742659 31.742659 0 0 0 63.485317 0v-245.014834h85.048041V118.724151c1.139545 64.574216-51.140247 116.904654-115.765109 116.904654z m158.358769 522.924533c-4.342933 16.675342-57.660976 38.820499-74.336318 34.490229l-10.268567-2.74757-50.583135 57.078542c-5.355861 5.925634-32.29977 33.338022-52.73561 45.239936-29.121705 16.66268-254.713628-31.286841-283.835333-75.969666-12.332409-19.41025-17.726255-42.023887-20.43584-52.748271l-17.814887-87.79561-10.268566-2.620954c-16.675342-4.342933-51.722681-50.127318-47.379749-66.789998a30.72973 30.72973 0 0 1 14.725454-19.220325 31.654027 31.654027 0 0 1 24.057061-2.848863L496.700727 602.486321c16.105569-86.212909 92.011927-151.280928 183.137541-151.280927 102.862927 0 186.328267 82.882905 186.328267 185.290015a183.200849 183.200849 0 0 1-10.737046 61.889954l79.704841 21.524739c17.219791 4.672134 27.387065 21.904587 22.588314 38.579928zM816.621652 854.338425l5.925634-6.963886c2.177797-2.74757 1.02559-1.139545-5.925634 6.963886z"  horiz-adv-x="1024" />

    
    <glyph glyph-name="jiaoyu" unicode="&#58913;" d="M513.147 311.292c-15.947 0-39.468 1.747-61.04 10.031l-172.596 66.501h-84.542v-103.565c0-31.84 23.684-67.975 52.884-80.663l208.987-90.967c29.2-12.688 76.605-12.743 105.841-0.127l211.263 91.222c29.218 12.615 52.921 48.697 52.921 80.537V387.826h-93.298l-152.954-64.48c-18.386-7.773-42.38-12.051-67.466-12.051zM46.313 523.009l416.19-160.363c29.728-11.433 77.605-10.686 106.951 1.693l397.458 167.536v-247.18l-24.558-81.938h71.015l-25.413 82.794V541.87h-0.71c17.167 11.833 13.162 26.596-12.252 35.681L570.637 721.439c-30.001 10.704-78.479 10.25-108.299-0.946L46.494 564.044c-29.819-11.214-29.891-29.6-0.182-41.033z"  horiz-adv-x="1024" />

    
    <glyph glyph-name="fuzhaibiao" unicode="&#59074;" d="M512.042667 896c282.709333 0 512-229.290667 512-512.042667 0-282.709333-229.290667-512-512-512-282.752 0-512.042667 229.290667-512.042667 512C0 666.709333 229.290667 896 512.042667 896z m206.421333-757.589333l36.352 60.586666a2541.696 2541.696 0 0 0-157.866667 62.805334c6.826667 17.493333 10.794667 37.12 12.16 58.709333h-66.773333c-2.645333-40.533333-13.44-68.138667-32.341333-82.944-16.213333-13.44-56.746667-26.325333-121.429334-38.442667 9.386667-12.202667 20.224-30.293333 32.341334-54.613333 72.874667 16.170667 122.794667 39.253333 149.76 68.864a1166.762667 1166.762667 0 0 0 147.797333-74.965333z m-338.048 8.021333V494.677333c14.933333 33.749333 27.093333 68.778667 36.522667 105.301334L356.181333 616.106667c-21.546667-87.808-49.92-160-85.034666-216.704 6.826667-26.965333 12.928-55.253333 18.304-85.034667 3.968 5.376 9.386667 14.165333 16.170666 26.325333a343.04 343.04 0 0 1 14.08 24.32v-218.624h60.714667z m107.306667 186.282667V332.8h170.026666v-87.082667h62.72V385.28H424.96v-151.808h62.762667v99.2zM418.858667 581.674667v-44.586667h117.504v-22.272H435.2v-42.496h101.205333v-22.101333H398.634667v-44.544h350.165333v44.544h-143.658667v22.186666h105.216v42.496h-105.216V537.173333h129.536V581.674667h-129.536v34.474666h-68.864v-34.474666H418.858667z"  horiz-adv-x="1024" />

    
    <glyph glyph-name="meirongmeifa" unicode="&#58903;" d="M456.473239 655.864789l-72.112676 126.197183-72.112676-126.197183v-30.287324h144.225352zM279.076056 614.039437h206.963381v-90.140845H279.076056zM852.371831 834.704225a107.447887 107.447887 0 0 1-124.75493-57.69014C672.090141 684.709859 721.126761 639.278873 721.126761 639.278873l6.49014-35.335211-51.921126-97.352113-54.805634 97.352113 7.211267 35.335211s51.2 45.430986-3.605633 137.735212a108.169014 108.169014 0 0 1-125.476057 57.69014 98.073239 98.073239 0 0 1-49.757746-113.938028A132.687324 132.687324 0 0 1 576.901408 612.597183l86.535212-139.898591-27.402817-62.016902s-153.6-79.323944-144.225352-224.991549a274.749296 274.749296 0 0 1 26.68169-100.23662l154.321127 288.450704 155.042253-288.450704a284.123944 284.123944 0 0 1 25.960564 100.23662c12.259155 144.225352-144.225352 224.991549-144.225353 224.991549l-27.402817 62.016902 85.814085 139.898591a131.24507 131.24507 0 0 1 128.360563 108.169014 97.352113 97.352113 0 0 1-43.988732 113.938028zM553.825352 679.661972A51.921127 51.921127 0 0 0 504.788732 722.208451c-12.259155 46.873239 25.960563 54.805634 25.960564 54.805634C556.709859 784.946479 576.901408 751.774648 576.901408 751.774648l8.653522-23.076056a39.661972 39.661972 0 0 0-31.729578-49.03662z m297.104225 38.940845a52.642254 52.642254 0 0 0-53.36338-38.940845 40.383099 40.383099 0 0 0-30.287324 47.594366l8.653521 24.51831s19.470423 31.729577 48.315493 23.076056c0 2.16338 41.104225-5.769014 26.68169-53.36338zM514.884507 40.022535a216.338028 216.338028 0 0 0-51.921127 216.338028 320.901408 320.901408 0 0 0 36.056338 72.112676L504.788732 339.290141l12.259155 15.143662A478.107042 478.107042 0 0 0 612.957746 439.526761h-5.769014l5.047888 3.605633a115.380282 115.380282 0 0 1-99.515493 56.969014H234.366197a116.101408 116.101408 0 0 1-116.101408-118.264788v-336.045071a116.101408 116.101408 0 0 1 116.101408-116.101408h278.35493a116.101408 116.101408 0 0 1 116.101408 116.101408V220.304225l-100.23662-196.146479z"  horiz-adv-x="1024" />

    


  </font>
</defs>
</svg>
